<?xml version="1.0" encoding="utf-8"?>
<!-- Generator: Adobe Illustrator 26.0.3, SVG Export Plug-In . SVG Version: 6.00 Build 0)  -->
<svg version="1.1" id="Layer_1" xmlns="http://www.w3.org/2000/svg" xmlns:xlink="http://www.w3.org/1999/xlink" x="0px" y="0px"
	 viewBox="0 0 120.8 30.1" style="enable-background:new 0 0 120.8 30.1;" xml:space="preserve">
<style type="text/css">
	.st0{fill:#000000;}
</style>
<path class="st0" d="M7.9,1.1c2,0,4,0.4,5.8,1.3c1.6,0.8,2.9,2.1,3.8,3.7c0.9,1.7,1.4,3.6,1.4,5.5c0,1.9-0.4,3.8-1.4,5.5
	c-0.9,1.6-2.2,2.9-3.9,3.7c-1.8,0.9-3.8,1.4-5.8,1.3H0v-21L7.9,1.1z M7.5,17.7c1.7,0.1,3.3-0.5,4.5-1.6c1.1-1.2,1.7-2.8,1.6-4.5
	c0.1-1.7-0.5-3.3-1.6-4.5C10.8,6,9.2,5.4,7.5,5.5H5.1v12.2L7.5,17.7z M20.8,13.8c0-1.6,0.3-3.1,1-4.5c0.6-1.2,1.5-2.3,2.7-3
	c1.1-0.7,2.4-1.1,3.7-1c1.1,0,2.1,0.2,3.1,0.7c0.8,0.4,1.5,1.1,2.1,1.9V5.4h5.1v16.7h-5.1v-2.4c-0.5,0.8-1.2,1.4-2.1,1.9
	c-1,0.5-2,0.7-3.1,0.7c-1.3,0-2.6-0.4-3.7-1.1c-1.1-0.7-2.1-1.8-2.7-3C21.1,16.9,20.7,15.3,20.8,13.8z M33.3,13.8
	c0.1-1.1-0.3-2.2-1.1-3c-0.7-0.7-1.6-1.1-2.6-1.1c-1,0-1.9,0.4-2.6,1.1c-0.7,0.8-1.1,1.9-1.1,3c-0.1,1.1,0.3,2.2,1.1,3
	c0.7,0.7,1.6,1.1,2.6,1.1c1,0,1.9-0.4,2.6-1.1C33,16,33.3,14.9,33.3,13.8z M59.2,5.5L48.7,30.1h-5.5l3.8-8.5L40.2,5.5h5.7l3.9,10.4
	l3.8-10.5L59.2,5.5z M66.2,0v22.2H61V0H66.2z M72.3,22.4c-0.8,0-1.6-0.3-2.2-0.8c-0.6-0.5-0.9-1.2-0.9-2c0-0.8,0.3-1.5,0.9-2
	c0.6-0.5,1.4-0.8,2.2-0.8c0.8,0,1.6,0.3,2.2,0.8c0.6,0.5,0.9,1.2,0.9,2c0,0.7-0.3,1.5-0.9,2C73.9,22.1,73.1,22.4,72.3,22.4z
	 M77.3,13.8c0-1.6,0.3-3.1,1-4.5c0.6-1.2,1.5-2.3,2.7-3c1.1-0.7,2.4-1.1,3.7-1c1.1,0,2.1,0.2,3.1,0.7c0.8,0.4,1.5,1.1,2.1,1.9V5.4
	h5.1v16.7h-5.1v-2.4c-0.5,0.8-1.2,1.4-2.1,1.9c-1,0.5-2,0.7-3.1,0.7c-1.3,0-2.6-0.4-3.7-1.1c-1.1-0.7-2.1-1.8-2.7-3
	C77.6,16.9,77.3,15.3,77.3,13.8L77.3,13.8z M89.8,13.8c0.1-1.1-0.3-2.2-1.1-3c-0.7-0.7-1.6-1.1-2.6-1.1c-1,0-1.9,0.4-2.6,1.1
	c-0.7,0.8-1.1,1.9-1.1,3c-0.1,1.1,0.3,2.2,1.1,3c0.7,0.7,1.6,1.1,2.6,1.1c1,0,1.9-0.4,2.6-1.1C89.5,16,89.9,14.9,89.8,13.8
	L89.8,13.8z M103.8,8.2c0.6-0.9,1.3-1.6,2.2-2.2c0.9-0.5,1.9-0.8,3-0.8v5.4h-1.4c-1-0.1-2,0.2-2.9,0.8c-0.7,0.8-1.1,1.8-1,2.9v7.8
	h-5.1V5.4h5.1L103.8,8.2z M120.8,17.8v4.3h-2.6c-1.6,0.1-3.1-0.4-4.3-1.4c-1-0.9-1.6-2.4-1.6-4.4V9.7h-2V5.4h2V1.4h5.1v4.1h3.4v4.3
	h-3.4v6.7c0,0.4,0.1,0.8,0.4,1.1c0.3,0.3,0.8,0.4,1.2,0.3L120.8,17.8z"/>
</svg>
